<svg width="16" height="18" viewBox="0 0 16 18" fill="none" xmlns="http://www.w3.org/2000/svg">
<path fill-rule="evenodd" clip-rule="evenodd" d="M8.31114 1.66799C8.11223 1.44405 7.7624 1.44405 7.56349 1.66799L1.12898 8.91216C0.842538 9.23466 1.07147 9.74421 1.50281 9.74421H3.93745C4.21359 9.74421 4.43745 9.96807 4.43745 10.2442V16.4943C4.43745 16.7704 4.66131 16.9943 4.93745 16.9943H10.9374C11.2136 16.9943 11.4374 16.7704 11.4374 16.4943V10.2442C11.4374 9.96807 11.6613 9.74421 11.9374 9.74421H14.3718C14.8032 9.74421 15.0321 9.23465 14.7456 8.91216L8.31114 1.66799L8.68497 1.33594L8.31114 1.66799ZM6.81584 1.0039C7.41257 0.332075 8.46206 0.332075 9.0588 1.0039L15.4933 8.24807C16.3526 9.21555 15.6658 10.7442 14.3718 10.7442H12.4374V16.4943C12.4374 17.3227 11.7659 17.9943 10.9374 17.9943H4.93745C4.10902 17.9943 3.43745 17.3227 3.43745 16.4943V10.7442H1.50281C0.2088 10.7442 -0.47801 9.21555 0.38133 8.24808L6.81584 1.0039Z" fill="white"/>
</svg>
