<svg width="60" height="60" viewBox="0 0 60 60" fill="none" xmlns="http://www.w3.org/2000/svg">
<path d="M33.75 31.3055C33.75 34.067 31.5114 36.3055 28.75 36.3055C25.9886 36.3055 23.75 34.067 23.75 31.3055C23.75 28.5441 25.9886 26.3055 28.75 26.3055C31.5114 26.3055 33.75 28.5441 33.75 31.3055Z" fill="#FF16A2"/>
<path fill-rule="evenodd" clip-rule="evenodd" d="M39.0611 20.3396C39.5741 19.8777 40.3645 19.9191 40.8264 20.4321C43.1226 22.9824 44.5526 26.1941 44.9113 29.6069C45.27 33.0198 44.539 36.4586 42.8232 39.4305C42.478 40.0284 41.7135 40.2332 41.1157 39.888C40.5178 39.5429 40.313 38.7784 40.6581 38.1805C42.11 35.6658 42.7285 32.7561 42.425 29.8682C42.1215 26.9804 40.9115 24.2628 38.9685 22.105C38.5066 21.5919 38.548 20.8016 39.0611 20.3396Z" fill="#1657FF"/>
<path fill-rule="evenodd" clip-rule="evenodd" d="M47.1347 15.3211C47.6477 14.8591 48.4381 14.9006 48.9 15.4136C52.2561 19.1408 54.346 23.8349 54.8703 28.8229C55.3945 33.8109 54.3262 38.8369 51.8185 43.1805C51.4733 43.7783 50.7088 43.9832 50.1109 43.638C49.5131 43.2928 49.3082 42.5283 49.6534 41.9305C51.8972 38.0441 52.853 33.5472 52.3839 29.0842C51.9149 24.6212 50.0449 20.4213 47.0422 17.0864C46.5802 16.5734 46.6217 15.783 47.1347 15.3211Z" fill="#1657FF"/>
<path fill-rule="evenodd" clip-rule="evenodd" d="M18.4389 20.3396C17.9259 19.8777 17.1355 19.9191 16.6736 20.4321C14.3774 22.9824 12.9474 26.1941 12.5887 29.6069C12.23 33.0198 12.961 36.4586 14.6768 39.4305C15.022 40.0284 15.7865 40.2332 16.3843 39.888C16.9822 39.5429 17.187 38.7784 16.8419 38.1805C15.39 35.6658 14.7715 32.7561 15.075 29.8682C15.3785 26.9804 16.5885 24.2628 18.5315 22.105C18.9934 21.5919 18.952 20.8016 18.4389 20.3396Z" fill="#1657FF"/>
<path fill-rule="evenodd" clip-rule="evenodd" d="M10.3653 15.3211C9.85227 14.8591 9.0619 14.9006 8.59996 15.4136C5.24393 19.1408 3.15402 23.8349 2.62975 28.8229C2.10549 33.8109 3.17379 38.8369 5.68154 43.1805C6.02672 43.7783 6.79121 43.9832 7.38907 43.638C7.98694 43.2928 8.19179 42.5283 7.84661 41.9305C5.60283 38.0441 4.64698 33.5472 5.11606 29.0842C5.58514 24.6212 7.45506 20.4213 10.4578 17.0864C10.9198 16.5734 10.8783 15.783 10.3653 15.3211Z" fill="#1657FF"/>
</svg>
