<svg width="228" height="272" viewBox="0 0 228 272" fill="none" xmlns="http://www.w3.org/2000/svg">
<g clip-path="url(#clip0_7_652)">
<path d="M88.3064 223.247C83.7697 218.564 77.1954 215.877 70.2691 215.877L70.002 215.878C65.4398 215.88 60.9591 214.668 57.0181 212.368L56.608 212.129L56.9383 211.788C58.7265 209.936 60.2196 207.82 61.3654 205.513C60.5517 206.273 59.5811 206.844 58.5224 207.186C57.4637 207.529 56.3427 207.634 55.2389 207.495C54.0735 207.356 52.9547 206.954 51.9664 206.321C50.9782 205.687 50.146 204.837 49.5325 203.836C47.1117 199.904 44.2261 194.325 44.2261 190.075C44.2299 186.482 44.9813 182.93 46.4324 179.644C47.8836 176.358 50.0027 173.411 52.6546 170.991C54.3335 169.475 55.6745 167.623 56.5902 165.554C57.5058 163.485 57.9756 161.246 57.969 158.983L57.9676 158.661C57.9672 155.681 58.3309 152.713 59.0506 149.822L59.1237 149.53L59.4237 149.541C61.3586 149.607 63.2944 149.444 65.1914 149.057C63.4121 148.839 61.6714 148.375 60.0188 147.68L59.696 147.549L59.8055 147.218C67.3567 142.538 84.4019 144.961 94.2954 122.302C102.318 103.928 130.623 138.612 130.623 158.661C130.623 160.706 128.601 163.41 130.115 164.762C146.481 179.378 135.188 188.764 131.628 198.208C130.783 200.449 132.615 202.909 132.615 205.333C132.615 205.745 132.604 206.169 132.584 206.595L132.552 207.251L132.007 206.887C130.927 206.179 129.926 205.357 129.022 204.436C129.96 206.598 130.403 208.944 130.316 211.299C130.23 213.655 129.617 215.962 128.522 218.049C126.807 221.29 125.148 223.61 123.59 224.944C118.602 229.218 112.17 231.422 105.612 231.107C99.0534 230.792 92.8629 227.98 88.3064 223.247Z" fill="#E6E6E6"/>
<path d="M115.707 272C115.818 272 115.926 271.96 116.01 271.886C116.094 271.813 116.149 271.712 116.165 271.601C116.185 271.463 118.114 257.536 116.381 239.026C114.781 221.932 109.643 197.31 94.2515 177.088C94.2146 177.04 94.1685 176.999 94.1159 176.968C94.0633 176.937 94.0051 176.917 93.9447 176.909C93.8844 176.901 93.823 176.905 93.7641 176.92C93.7052 176.936 93.6499 176.963 93.6014 177C93.553 177.037 93.5123 177.083 93.4817 177.136C93.451 177.189 93.4311 177.247 93.423 177.307C93.4149 177.368 93.4187 177.429 93.4343 177.488C93.45 177.547 93.477 177.602 93.514 177.651C108.773 197.698 113.87 222.139 115.458 239.112C117.181 257.515 115.267 271.333 115.247 271.471C115.238 271.536 115.243 271.603 115.262 271.667C115.281 271.731 115.313 271.79 115.356 271.84C115.4 271.89 115.454 271.931 115.514 271.958C115.575 271.986 115.64 272 115.707 272Z" fill="#3F3D56"/>
<path d="M103.146 205.612C103.244 205.612 103.34 205.581 103.419 205.523C103.498 205.466 103.557 205.384 103.587 205.291C103.618 205.198 103.618 205.097 103.587 205.004C103.557 204.911 103.498 204.83 103.419 204.772C99.0333 201.8 94.2954 199.386 89.3145 197.585C81.5327 194.733 69.6994 192.147 57.5172 196.028C57.4591 196.047 57.4051 196.076 57.3585 196.116C57.3118 196.155 57.2733 196.203 57.2453 196.257C57.2172 196.311 57.2001 196.371 57.1949 196.431C57.1897 196.492 57.1966 196.553 57.2151 196.612C57.2335 196.67 57.2633 196.724 57.3026 196.77C57.342 196.817 57.3901 196.855 57.4443 196.883C57.4985 196.911 57.5576 196.928 57.6184 196.933C57.6791 196.938 57.7403 196.931 57.7983 196.913C69.7309 193.111 81.3498 195.654 88.9957 198.456C93.8966 200.227 98.5585 202.6 102.874 205.523C102.953 205.581 103.048 205.612 103.146 205.612Z" fill="#3F3D56"/>
<path d="M124.362 152.714C124.369 152.616 124.345 152.519 124.294 152.436C124.242 152.352 124.165 152.288 124.075 152.251C123.984 152.214 123.884 152.206 123.789 152.23C123.694 152.253 123.609 152.306 123.546 152.381C120.269 156.546 117.522 161.103 115.368 165.946C111.967 173.511 108.538 185.14 111.528 197.583C111.542 197.642 111.568 197.698 111.604 197.747C111.64 197.797 111.685 197.839 111.737 197.87C111.789 197.902 111.846 197.924 111.906 197.933C111.967 197.943 112.028 197.94 112.087 197.926C112.146 197.912 112.202 197.886 112.252 197.85C112.301 197.814 112.343 197.769 112.374 197.717C112.406 197.665 112.427 197.607 112.437 197.547C112.446 197.487 112.444 197.425 112.429 197.366C109.501 185.178 112.871 173.76 116.214 166.328C118.331 161.562 121.032 157.078 124.254 152.979C124.317 152.905 124.355 152.812 124.362 152.714Z" fill="#3F3D56"/>
<path d="M213.775 271.509H176.873L176.714 271.221C176.242 270.364 175.787 269.456 175.361 268.524C171.56 260.377 169.953 251.06 168.536 242.84L167.468 236.644C167.339 235.893 167.436 235.121 167.748 234.427C168.06 233.732 168.571 233.146 169.217 232.744C169.863 232.342 170.614 232.142 171.375 232.17C172.135 232.198 172.869 232.453 173.484 232.901C179.092 236.986 184.703 241.067 190.315 245.144C192.44 246.692 194.867 248.484 197.192 250.42C197.416 249.33 197.65 248.236 197.885 247.158C198.047 246.413 198.427 245.734 198.976 245.207C199.526 244.68 200.22 244.329 200.97 244.199C201.72 244.069 202.492 244.166 203.186 244.478C203.881 244.79 204.467 245.302 204.869 245.949L209.186 252.893C212.336 257.964 215.115 262.961 214.549 268.351C214.551 268.416 214.546 268.482 214.534 268.546C214.421 269.432 214.21 270.302 213.907 271.141L213.775 271.509Z" fill="#F0F0F0"/>
<path d="M196.583 126.279L189.461 99.8906C189.156 98.7735 188.424 97.8213 187.424 97.2394C186.424 96.6575 185.235 96.4926 184.115 96.7803C183.535 96.9291 182.991 97.1945 182.518 97.5604C182.044 97.9263 181.649 98.385 181.358 98.9085C181.067 99.432 180.886 100.009 180.825 100.605C180.764 101.201 180.825 101.803 181.004 102.375L189.242 129.559L193.551 146.288C192.924 146.767 192.459 147.429 192.22 148.182C191.981 148.936 191.979 149.745 192.215 150.499C192.452 151.254 192.914 151.917 193.54 152.399C194.166 152.881 194.925 153.159 195.714 153.194C196.503 153.229 197.283 153.02 197.95 152.596C198.616 152.172 199.136 151.552 199.438 150.822C199.741 150.092 199.811 149.286 199.64 148.514C199.469 147.742 199.065 147.042 198.482 146.508L196.583 126.279Z" fill="#F9B499"/>
<path d="M136.654 120.595L158.293 103.924C159.207 103.215 159.807 102.175 159.962 101.027C160.117 99.8797 159.815 98.717 159.121 97.7903C158.762 97.3109 158.31 96.9096 157.791 96.6111C157.272 96.3125 156.698 96.1228 156.104 96.0536C155.509 95.9844 154.907 96.0371 154.333 96.2085C153.76 96.3799 153.227 96.6664 152.768 97.0506L130.821 115.057L117.024 125.436C116.342 125.039 115.553 124.862 114.766 124.928C113.979 124.995 113.232 125.303 112.626 125.81C112.02 126.316 111.584 126.998 111.378 127.761C111.172 128.524 111.206 129.332 111.475 130.076C111.744 130.819 112.235 131.461 112.881 131.916C113.528 132.37 114.298 132.614 115.088 132.615C115.878 132.615 116.648 132.373 117.296 131.92C117.943 131.467 118.435 130.825 118.705 130.082L136.654 120.595Z" fill="#F9B499"/>
<path d="M154.291 124.428L153.337 145.753L183.285 139.237C180.736 130.668 179.003 129.206 180.919 123.243L154.291 124.428Z" fill="#F9B499"/>
<path d="M172.705 85.333H162.726L158.441 92.6741L156.399 92.5612C155.4 92.5061 154.401 92.6553 153.461 92.9999C152.522 93.3445 151.663 93.8772 150.937 94.5655C150.21 95.2537 149.631 96.0831 149.236 97.0028C148.84 97.9225 148.636 98.9133 148.636 99.9146L151.152 103.818C151.152 103.818 146.653 111.669 153.134 115.531C153.134 115.531 151.978 122.807 153.134 122.729C154.291 122.651 156.953 121.17 154.291 122.651C151.628 124.131 151.826 124.33 152.171 124.675L152.515 125.02L180.515 129.726C180.515 129.726 181.334 124.293 181.422 123.324C181.51 122.354 180.919 124.724 181.51 122.354C182.102 119.985 182.99 120.873 182.102 119.985C181.214 119.096 187.853 108.088 185.126 103.818L189.499 99.5485C189.499 95.4526 182.927 92.1322 178.836 92.1322H178.312L172.705 85.333Z" fill="#E6E6E6"/>
<path d="M148.662 263.287H144.623L142.701 247.692L148.662 247.692L148.662 263.287Z" fill="#A0616A"/>
<path d="M136.471 269.253C136.473 269.706 136.653 270.14 136.973 270.461C137.293 270.781 137.726 270.963 138.178 270.966H145.781L146.017 270.477L147.092 268.255L147.509 270.477L147.601 270.966H150.469L150.428 270.473L149.663 261.293L148.663 261.232L144.341 260.975L143.279 260.911V263.652C142.473 264.509 136.15 267.753 136.471 269.253Z" fill="#2F2E41"/>
<path d="M208.689 252.697L205.292 254.884L195.247 242.809L200.261 239.581L208.689 252.697Z" fill="#A0616A"/>
<path d="M201.661 264.317C201.907 264.696 202.293 264.964 202.735 265.06C203.177 265.157 203.64 265.075 204.022 264.832L210.416 260.714L210.35 260.176L210.054 257.725L211.605 259.367L211.946 259.729L214.358 258.175L214.058 257.784L208.453 250.477L207.579 250.967L203.805 253.093L202.877 253.613L204.359 255.918C204.145 257.076 200.58 263.229 201.661 264.317Z" fill="#2F2E41"/>
<path d="M227.53 271.794L102.463 271.916C102.338 271.915 102.219 271.865 102.131 271.776C102.043 271.688 101.993 271.568 101.993 271.443C101.993 271.318 102.043 271.198 102.131 271.109C102.219 271.021 102.338 270.971 102.463 270.97L227.53 270.848C227.655 270.849 227.775 270.899 227.863 270.987C227.951 271.076 228 271.196 228 271.321C228 271.446 227.951 271.566 227.863 271.654C227.775 271.743 227.655 271.793 227.53 271.794Z" fill="#CACACA"/>
<path d="M182.816 136.828C182.816 136.828 163.672 146.965 153.547 140.049C153.547 140.049 151.332 150.788 150.444 151.676C149.557 152.565 148.143 152.952 149.145 153.943C150.148 154.934 150.707 156.273 148.8 157.973C146.894 159.673 144.993 159.134 146.831 160.884C148.669 162.635 141.272 205.581 141.272 205.581C141.272 205.581 142.456 245.519 141.272 246.727C140.089 247.935 138.507 248.206 140.038 249.699C141.568 251.193 141.568 250.035 141.568 252.095V254.155L142.269 256.202H151.875C151.875 256.202 154.193 253.507 151.875 251.165C149.557 248.824 152.581 248.183 153.288 245.986C153.995 243.789 155.178 246.158 153.995 243.789C152.811 241.419 152.243 241.87 152.231 240.312C152.219 238.753 169.676 177.74 169.676 177.74L171.79 211.51L197.221 248.494L204.707 242.874C204.707 242.874 199.257 235.194 200.531 234.138C201.806 233.082 196.775 231.758 198.361 230.567C199.948 229.376 196.129 228.175 197.568 226.597C199.007 225.018 195.585 221.038 193.602 221.038C191.619 221.038 188.836 214.405 188.836 214.405L192.991 162.003L182.816 136.828Z" fill="#2F2E41"/>
<path d="M162.526 63.7776C162.39 63.9557 161.311 63.8598 160.013 63.6701C157.446 63.295 157.097 63.7407 155.178 65.4877C152.399 68.0184 153.979 83.4535 152.613 86.7979L152.172 87.1233C153.047 86.956 153.907 86.7152 154.742 86.4035C155.213 84.9142 155.686 83.42 156.162 81.9318C156.611 83.0897 156.894 84.3057 157.001 85.5432C157.662 85.2825 158.318 84.645 161.079 83.7899C162.469 82.8459 172.525 81.8968 173.818 81.4815C177.099 70.3062 171.811 65.7869 162.526 63.7776Z" fill="#2F2E41"/>
<path d="M165.921 81.0102C171.228 81.0102 175.531 76.7031 175.531 71.3902C175.531 66.0772 171.228 61.7701 165.921 61.7701C160.614 61.7701 156.311 66.0772 156.311 71.3902C156.311 76.7031 160.614 81.0102 165.921 81.0102Z" fill="#F9B499"/>
<path d="M171.971 62.9298C171.429 62.8498 170.908 62.6669 170.435 62.3908C170.201 62.2491 170.011 62.0442 169.887 61.7996C169.764 61.555 169.711 61.2805 169.736 61.0074C169.854 60.3239 170.626 59.9158 171.318 59.9574C172.007 60.0567 172.661 60.3218 173.225 60.7299C173.163 60.0693 172.881 59.4488 172.425 58.9679C171.968 58.487 171.363 58.1737 170.707 58.0783C171.617 58.0293 172.563 57.986 173.404 58.3363C174.245 58.6866 174.946 59.5539 174.795 60.4533C176.209 60.2709 177.604 61.2574 178.188 62.5598C178.772 63.8622 178.656 65.3917 178.19 66.7408C178.144 66.9473 178.054 67.1416 177.926 67.3104C177.799 67.4792 177.636 67.6186 177.45 67.7191C176.974 67.8999 176.462 67.5967 176.049 67.2978C173.895 65.7362 171.934 63.9232 170.208 61.8972" fill="#2F2E41"/>
<path d="M176.161 81.6177C175.754 81.8097 175.966 82.524 175.649 82.8439C175.512 82.9793 175.346 83.0825 175.164 83.146C175.116 82.5498 174.978 81.9644 174.753 81.4104C174.711 81.3097 174.643 81.1971 174.537 81.206C174.412 81.2208 174.38 81.3837 174.377 81.5051C174.352 82.1075 174.219 82.7005 173.983 83.2556C173.98 83.2615 173.977 83.2704 173.975 83.2763C173.883 83.2733 173.788 83.2704 173.699 83.2674C173.013 83.2408 171.492 81.4755 171.155 82.0738C172.344 79.9621 173.794 76.787 174.016 74.3731C174.093 73.8677 174.055 73.3515 173.907 72.8626C173.829 72.6193 173.683 72.4035 173.486 72.2408C173.289 72.078 173.05 71.9752 172.797 71.9444C172.672 71.9387 172.547 71.9607 172.432 72.0089C172.316 72.057 172.213 72.1301 172.129 72.223C172.045 72.3158 171.983 72.426 171.946 72.5458C171.91 72.6656 171.9 72.792 171.918 72.9159L171.747 72.8922C170.155 71.595 171.528 69.341 169.676 68.4495C169.048 68.1474 165.208 69.1574 164.53 68.9797C164.516 68.2652 164.371 67.5594 164.101 66.8975C164.06 66.7968 163.992 66.6843 163.885 66.6932C163.761 66.708 163.729 66.8709 163.726 66.9923C163.701 67.5947 163.567 68.1876 163.332 68.7427C162.394 68.6094 161.438 68.6597 160.519 68.8908C159.708 69.104 158.939 69.4713 158.125 69.6668C157.723 69.7902 157.3 69.8302 156.881 69.7843C156.463 69.7385 156.059 69.6078 155.693 69.4002C154.66 68.7072 154.48 67.173 154.995 66.0415C155.367 65.3155 155.871 64.6648 156.48 64.1223C156.944 63.6721 157.427 63.2397 157.909 62.8072C158.341 62.4193 158.773 62.0312 159.205 61.6432C159.749 61.1309 160.328 60.6578 160.939 60.2275C161.914 59.5878 163.009 59.1543 164.157 58.9536C165.305 58.7529 166.483 58.7893 167.616 59.0606C168.977 59.3863 170.797 58.9273 172.043 59.5641C172.693 59.8987 174.134 61.1812 174.705 61.6373C176.167 62.8013 175.178 61.8529 176.776 62.5259C180.588 64.1306 178.903 80.3256 176.161 81.6177Z" fill="#2F2E41"/>
<path d="M69.7586 151.833C102.673 151.833 129.355 125.123 129.355 92.1735C129.355 59.2245 102.673 32.514 69.7586 32.514C36.8444 32.514 10.1622 59.2245 10.1622 92.1735C10.1622 125.123 36.8444 151.833 69.7586 151.833Z" fill="white"/>
<path d="M69.7586 152.428C36.5691 152.428 9.56738 125.398 9.56738 92.1734C9.56738 58.9488 36.5691 31.9185 69.7586 31.9185C102.948 31.9185 129.95 58.9488 129.95 92.1734C129.95 125.398 102.948 152.428 69.7586 152.428ZM69.7586 33.1095C37.2252 33.1095 10.7571 59.6056 10.7571 92.1734C10.7571 124.741 37.2252 151.237 69.7586 151.237C102.292 151.237 128.76 124.741 128.76 92.1734C128.76 59.6055 102.292 33.1095 69.7586 33.1095Z" fill="#6C63FF"/>
<path d="M61.6284 123.224C60.5993 123.224 59.5842 122.984 58.6638 122.523C57.7434 122.062 56.9428 121.393 56.3255 120.568L40.0667 98.8668C39.5444 98.1696 39.1644 97.3762 38.9484 96.532C38.7324 95.6878 38.6845 94.8092 38.8077 93.9465C38.9308 93.0838 39.2225 92.2539 39.6661 91.504C40.1096 90.7541 40.6964 90.0991 41.3929 89.5762C42.0893 89.0533 42.8818 88.6729 43.7251 88.4567C44.5685 88.2404 45.4461 88.1926 46.3079 88.3158C47.1697 88.4391 47.9988 88.7311 48.7478 89.1751C49.4969 89.6192 50.1513 90.2065 50.6736 90.9037L61.3106 105.1L88.6305 64.0777C89.6063 62.6144 91.1226 61.5989 92.8461 61.2544C94.5696 60.9098 96.3592 61.2645 97.8216 62.2405C99.2839 63.2164 100.299 64.7337 100.645 66.4588C100.99 68.1839 100.637 69.9756 99.6625 71.4401L67.1449 120.268C66.5567 121.151 65.7655 121.88 64.8378 122.394C63.91 122.908 62.8728 123.192 61.8129 123.221C61.7514 123.222 61.6899 123.224 61.6284 123.224Z" fill="#1657FF"/>
<path d="M131.16 36.2416C131.326 35.101 130.133 33.983 128.495 33.7444C126.857 33.5059 125.395 34.2371 125.229 35.3777C125.063 36.5183 126.256 37.6364 127.894 37.8749C129.532 38.1135 130.994 37.3822 131.16 36.2416Z" fill="#E6E6E6"/>
<path d="M150.661 34.3367C150.827 33.1961 149.633 32.0781 147.995 31.8396C146.357 31.601 144.895 32.3322 144.73 33.4728C144.564 34.6135 145.757 35.7315 147.395 35.97C149.033 36.2086 150.495 35.4774 150.661 34.3367Z" fill="#3F3D56"/>
<path d="M125.82 20.4374C125.986 19.2968 124.792 18.1788 123.155 17.9402C121.517 17.7017 120.055 18.4329 119.889 19.5735C119.723 20.7141 120.916 21.8322 122.554 22.0707C124.192 22.3093 125.654 21.578 125.82 20.4374Z" fill="#FF6584"/>
<path d="M117.347 13.9638C117.355 12.9167 116.771 12.0634 116.043 12.0578C115.316 12.0523 114.719 12.8967 114.712 13.9439C114.704 14.991 115.287 15.8443 116.015 15.8498C116.742 15.8553 117.339 15.0109 117.347 13.9638Z" fill="#E6E6E6"/>
<path d="M114.473 1.90594C114.481 0.858819 113.898 0.00548998 113.17 -1.8277e-05C112.442 -0.00552653 111.846 0.838872 111.838 1.886C111.83 2.93312 112.414 3.78645 113.141 3.79196C113.869 3.79746 114.465 2.95307 114.473 1.90594Z" fill="#3F3D56"/>
<path d="M136.819 23.1269C136.827 22.0798 136.243 21.2264 135.516 21.2209C134.788 21.2154 134.192 22.0598 134.184 23.1069C134.176 24.1541 134.759 25.0074 135.487 25.0129C136.215 25.0184 136.811 24.174 136.819 23.1269Z" fill="#E6E6E6"/>
<path d="M127.395 27.837C127.403 26.7899 126.82 25.9365 126.092 25.931C125.364 25.9255 124.768 26.7699 124.76 27.817C124.752 28.8642 125.336 29.7175 126.063 29.723C126.791 29.7285 127.387 28.8841 127.395 27.837Z" fill="#FF6584"/>
<path d="M140.513 36.5424C140.521 35.4953 139.938 34.642 139.21 34.6365C138.482 34.631 137.886 35.4754 137.878 36.5225C137.87 37.5696 138.454 38.4229 139.181 38.4284C139.909 38.4339 140.505 37.5896 140.513 36.5424Z" fill="#3F3D56"/>
<path d="M19.3223 177.577C19.4881 176.436 18.2947 175.318 16.6568 175.08C15.0189 174.841 13.5567 175.572 13.391 176.713C13.2252 177.853 14.4186 178.971 16.0564 179.21C17.6943 179.449 19.1565 178.717 19.3223 177.577Z" fill="#E6E6E6"/>
<path d="M38.8231 175.672C38.9889 174.531 37.7955 173.413 36.1576 173.175C34.5197 172.936 33.0576 173.667 32.8918 174.808C32.726 175.949 33.9194 177.067 35.5573 177.305C37.1952 177.544 38.6573 176.812 38.8231 175.672Z" fill="#3F3D56"/>
<path d="M13.9824 161.773C14.1481 160.632 12.9548 159.514 11.3169 159.275C9.679 159.037 8.21683 159.768 8.05105 160.909C7.88528 162.049 9.07866 163.167 10.7165 163.406C12.3544 163.644 13.8166 162.913 13.9824 161.773Z" fill="#FF6584"/>
<path d="M5.50874 155.299C5.51665 154.252 4.93318 153.398 4.20552 153.393C3.47785 153.387 2.88155 154.232 2.87364 155.279C2.86573 156.326 3.44921 157.179 4.17687 157.185C4.90453 157.19 5.50083 156.346 5.50874 155.299Z" fill="#E6E6E6"/>
<path d="M2.63519 143.241C2.6431 142.194 2.05963 141.341 1.33197 141.335C0.604307 141.33 0.00801041 142.174 0.000100671 143.221C-0.00780906 144.268 0.575664 145.122 1.30333 145.127C2.03099 145.133 2.62728 144.288 2.63519 143.241Z" fill="#3F3D56"/>
<path d="M24.981 164.462C24.9889 163.415 24.4054 162.562 23.6778 162.556C22.9501 162.551 22.3538 163.395 22.3459 164.442C22.338 165.489 22.9215 166.342 23.6491 166.348C24.3768 166.353 24.9731 165.509 24.981 164.462Z" fill="#E6E6E6"/>
<path d="M15.5574 169.172C15.5653 168.125 14.9818 167.272 14.2541 167.266C13.5265 167.261 12.9302 168.105 12.9223 169.152C12.9143 170.199 13.4978 171.053 14.2255 171.058C14.9531 171.064 15.5495 170.219 15.5574 169.172Z" fill="#FF6584"/>
<path d="M28.6754 177.878C28.6833 176.83 28.0998 175.977 27.3722 175.972C26.6445 175.966 26.0482 176.811 26.0403 177.858C26.0324 178.905 26.6159 179.758 27.3435 179.764C28.0712 179.769 28.6675 178.925 28.6754 177.878Z" fill="#3F3D56"/>
</g>
<defs>
<clipPath id="clip0_7_652">
<rect width="228" height="272" fill="white"/>
</clipPath>
</defs>
</svg>
