<svg width="46" height="44" viewBox="0 0 46 44" fill="none" xmlns="http://www.w3.org/2000/svg">
<path fill-rule="evenodd" clip-rule="evenodd" d="M19.6372 2.98923C21.0128 0.202056 24.9872 0.202057 26.3627 2.98923L30.8865 12.1554C31.0686 12.5244 31.4206 12.7801 31.8277 12.8392L41.9432 14.3091C45.019 14.7561 46.2472 18.536 44.0215 20.7055L36.7019 27.8404C36.4072 28.1275 36.2728 28.5413 36.3424 28.9468L38.0703 39.0214C38.5957 42.0848 35.3803 44.4209 32.6292 42.9746L23.5816 38.218C23.2175 38.0265 22.7824 38.0265 22.4183 38.218L13.3707 42.9746C10.6196 44.4209 7.40421 42.0848 7.92963 39.0214L9.65756 28.9468C9.72711 28.5413 9.59268 28.1275 9.29807 27.8404L1.97841 20.7055C-0.247281 18.536 0.980883 14.7561 4.05671 14.3091L14.1722 12.8392C14.5794 12.7801 14.9313 12.5244 15.1134 12.1554L19.6372 2.98923ZM24.1209 4.09564C23.6624 3.16659 22.3376 3.16659 21.879 4.09564L17.3552 13.2619C16.809 14.3686 15.7531 15.1358 14.5317 15.3133L4.4162 16.7831C3.39093 16.9321 2.98154 18.1921 3.72344 18.9153L11.0431 26.0502C11.9269 26.9117 12.3302 28.1529 12.1216 29.3694L10.3936 39.4441C10.2185 40.4652 11.2903 41.2439 12.2073 40.7618L21.2549 36.0052C22.3474 35.4308 23.6525 35.4308 24.745 36.0052L33.7926 40.7618C34.7096 41.2439 35.7814 40.4652 35.6063 39.4441L33.8783 29.3694C33.6697 28.1529 34.073 26.9117 34.9568 26.0502L42.2765 18.9153C43.0184 18.1921 42.609 16.9321 41.5837 16.7831L31.4682 15.3133C30.2468 15.1358 29.1909 14.3686 28.6447 13.2619L24.1209 4.09564Z" fill="#1657FF"/>
</svg>
