<svg width="48" height="48" viewBox="0 0 48 48" fill="none" xmlns="http://www.w3.org/2000/svg">
<path fill-rule="evenodd" clip-rule="evenodd" d="M17.3306 1.83058C18.5027 0.65848 20.0924 0 21.75 0C23.4076 0 24.9973 0.65848 26.1694 1.83058C27.0424 2.70356 27.6305 3.8082 27.8738 5H34.25C39.0825 5 43 8.91751 43 13.75V20.1262C44.1918 20.3695 45.2964 20.9576 46.1694 21.8306C47.3415 23.0027 48 24.5924 48 26.25C48 27.9076 47.3415 29.4973 46.1694 30.6694C45.2964 31.5424 44.1918 32.1305 43 32.3738V38.75C43 43.5825 39.0825 47.5 34.25 47.5H26.75C26.0596 47.5 25.5 46.9404 25.5 46.25C25.5 45.2554 25.1049 44.3016 24.4016 43.5983C23.6984 42.8951 22.7446 42.5 21.75 42.5C20.7554 42.5 19.8016 42.8951 19.0984 43.5983C18.3951 44.3016 18 45.2554 18 46.25C18 46.9404 17.4404 47.5 16.75 47.5H9.25C4.41751 47.5 0.5 43.5825 0.5 38.75V31.25C0.5 30.5596 1.05964 30 1.75 30C2.74456 30 3.69839 29.6049 4.40165 28.9017L5.28553 29.7855L4.40165 28.9016C5.10491 28.1984 5.5 27.2446 5.5 26.25C5.5 25.2554 5.10491 24.3016 4.40165 23.5984C3.69839 22.8951 2.74456 22.5 1.75 22.5C1.05964 22.5 0.5 21.9404 0.5 21.25V13.75C0.5 8.91751 4.41751 5 9.25 5L15.6263 5C15.8695 3.80819 16.4576 2.70356 17.3306 1.83058ZM21.75 2.5C20.7554 2.5 19.8016 2.89509 19.0984 3.59835C18.3951 4.30161 18 5.25544 18 6.25C18 6.94035 17.4404 7.5 16.75 7.5L9.25 7.5C5.79822 7.5 3 10.2982 3 13.75V20.1262C4.19181 20.3695 5.29644 20.9576 6.16942 21.8306C7.34152 23.0027 8 24.5924 8 26.25C8 27.9076 7.34152 29.4973 6.16942 30.6694C5.29644 31.5424 4.1918 32.1305 3 32.3738V38.75C3 42.2018 5.79822 45 9.25 45H15.6262C15.8695 43.8082 16.4576 42.7036 17.3306 41.8306L18.2145 42.7145L17.3306 41.8306C18.5027 40.6585 20.0924 40 21.75 40C23.4076 40 24.9973 40.6585 26.1694 41.8306C27.0424 42.7036 27.6305 43.8082 27.8738 45H34.25C37.7018 45 40.5 42.2018 40.5 38.75V31.25C40.5 30.5596 41.0596 30 41.75 30C42.7446 30 43.6984 29.6049 44.4016 28.9016C45.1049 28.1984 45.5 27.2446 45.5 26.25C45.5 25.2554 45.1049 24.3016 44.4016 23.5983C43.6984 22.8951 42.7446 22.5 41.75 22.5C41.0596 22.5 40.5 21.9404 40.5 21.25V13.75C40.5 10.2982 37.7018 7.5 34.25 7.5H26.75C26.0596 7.5 25.5 6.94036 25.5 6.25C25.5 5.25544 25.1049 4.30161 24.4017 3.59835L25.2855 2.71447L24.4016 3.59835C23.6984 2.89509 22.7446 2.5 21.75 2.5Z" fill="#1657FF"/>
</svg>
