<svg width="48" height="43" viewBox="0 0 48 43" fill="none" xmlns="http://www.w3.org/2000/svg">
<path fill-rule="evenodd" clip-rule="evenodd" d="M36.75 0.5C37.4404 0.5 38 1.05964 38 1.75L38 6.75C38 7.44036 37.4404 8 36.75 8C36.0596 8 35.5 7.44036 35.5 6.75L35.5 1.75C35.5 1.05964 36.0596 0.5 36.75 0.5Z" fill="#FF16A2"/>
<path fill-rule="evenodd" clip-rule="evenodd" d="M14.25 0.5C14.9404 0.5 15.5 1.05964 15.5 1.75L15.5 6.75C15.5 7.44036 14.9404 8 14.25 8C13.5596 8 13 7.44036 13 6.75L13 1.75C13 1.05964 13.5596 0.5 14.25 0.5Z" fill="#FF16A2"/>
<path fill-rule="evenodd" clip-rule="evenodd" d="M0.5 14.25C0.5 9.41751 4.41751 5.5 9.25 5.5H39.25C44.0825 5.5 48 9.41751 48 14.25V34.25C48 39.0825 44.0825 43 39.25 43H9.25C4.41751 43 0.5 39.0825 0.5 34.25V14.25ZM9.25 8C5.79822 8 3 10.7982 3 14.25V34.25C3 37.7018 5.79822 40.5 9.25 40.5H39.25C42.7018 40.5 45.5 37.7018 45.5 34.25V14.25C45.5 10.7982 42.7018 8 39.25 8H9.25Z" fill="#1657FF"/>
<path fill-rule="evenodd" clip-rule="evenodd" d="M0.5 16.75C0.5 16.0596 1.05964 15.5 1.75 15.5H46.75C47.4404 15.5 48 16.0596 48 16.75C48 17.4404 47.4404 18 46.75 18H1.75C1.05964 18 0.5 17.4404 0.5 16.75Z" fill="#1657FF"/>
<path fill-rule="evenodd" clip-rule="evenodd" d="M8 24.25C8 23.5596 8.55964 23 9.25 23H14.25C14.9404 23 15.5 23.5596 15.5 24.25C15.5 24.9404 14.9404 25.5 14.25 25.5H9.25C8.55964 25.5 8 24.9404 8 24.25Z" fill="#FF16A2"/>
<path fill-rule="evenodd" clip-rule="evenodd" d="M8 34.25C8 33.5596 8.55964 33 9.25 33H14.25C14.9404 33 15.5 33.5596 15.5 34.25C15.5 34.9404 14.9404 35.5 14.25 35.5H9.25C8.55964 35.5 8 34.9404 8 34.25Z" fill="#FF16A2"/>
<path fill-rule="evenodd" clip-rule="evenodd" d="M20.5 24.25C20.5 23.5596 21.0596 23 21.75 23H26.75C27.4404 23 28 23.5596 28 24.25C28 24.9404 27.4404 25.5 26.75 25.5H21.75C21.0596 25.5 20.5 24.9404 20.5 24.25Z" fill="#FF16A2"/>
<path fill-rule="evenodd" clip-rule="evenodd" d="M20.5 34.25C20.5 33.5596 21.0596 33 21.75 33H26.75C27.4404 33 28 33.5596 28 34.25C28 34.9404 27.4404 35.5 26.75 35.5H21.75C21.0596 35.5 20.5 34.9404 20.5 34.25Z" fill="#FF16A2"/>
<path fill-rule="evenodd" clip-rule="evenodd" d="M33 24.25C33 23.5596 33.5596 23 34.25 23H39.25C39.9404 23 40.5 23.5596 40.5 24.25C40.5 24.9404 39.9404 25.5 39.25 25.5H34.25C33.5596 25.5 33 24.9404 33 24.25Z" fill="#FF16A2"/>
<path fill-rule="evenodd" clip-rule="evenodd" d="M33 34.25C33 33.5596 33.5596 33 34.25 33H39.25C39.9404 33 40.5 33.5596 40.5 34.25C40.5 34.9404 39.9404 35.5 39.25 35.5H34.25C33.5596 35.5 33 34.9404 33 34.25Z" fill="#FF16A2"/>
</svg>
