<svg width="48" height="48" viewBox="0 0 48 48" fill="none" xmlns="http://www.w3.org/2000/svg">
<path fill-rule="evenodd" clip-rule="evenodd" d="M0.5 8.75C0.5 3.91751 4.41751 0 9.25 0H16.75C21.5825 0 25.5 3.91751 25.5 8.75V16.25C25.5 21.0825 21.5825 25 16.75 25H9.25C4.41751 25 0.5 21.0825 0.5 16.25V8.75ZM9.25 2.5C5.79822 2.5 3 5.29822 3 8.75V16.25C3 19.7018 5.79822 22.5 9.25 22.5H16.75C20.2018 22.5 23 19.7018 23 16.25V8.75C23 5.29822 20.2018 2.5 16.75 2.5H9.25Z" fill="#1657FF"/>
<path fill-rule="evenodd" clip-rule="evenodd" d="M0.5 33.75C0.5 30.2982 3.29822 27.5 6.75 27.5H14.25C17.7018 27.5 20.5 30.2982 20.5 33.75V41.25C20.5 44.7018 17.7018 47.5 14.25 47.5H6.75C3.29822 47.5 0.5 44.7018 0.5 41.25V33.75ZM6.75 30C4.67893 30 3 31.6789 3 33.75V41.25C3 43.3211 4.67893 45 6.75 45H14.25C16.3211 45 18 43.3211 18 41.25V33.75C18 31.6789 16.3211 30 14.25 30H6.75Z" fill="#1657FF"/>
<path fill-rule="evenodd" clip-rule="evenodd" d="M28 6.25C28 2.79822 30.7982 0 34.25 0H41.75C45.2018 0 48 2.79822 48 6.25V13.75C48 17.2018 45.2018 20 41.75 20H34.25C30.7982 20 28 17.2018 28 13.75V6.25ZM34.25 2.5C32.1789 2.5 30.5 4.17893 30.5 6.25V13.75C30.5 15.8211 32.1789 17.5 34.25 17.5H41.75C43.8211 17.5 45.5 15.8211 45.5 13.75V6.25C45.5 4.17893 43.8211 2.5 41.75 2.5H34.25Z" fill="#FF16A2"/>
<path fill-rule="evenodd" clip-rule="evenodd" d="M23 31.25C23 26.4175 26.9175 22.5 31.75 22.5H39.25C44.0825 22.5 48 26.4175 48 31.25V38.75C48 43.5825 44.0825 47.5 39.25 47.5H31.75C26.9175 47.5 23 43.5825 23 38.75V31.25ZM31.75 25C28.2982 25 25.5 27.7982 25.5 31.25V38.75C25.5 42.2018 28.2982 45 31.75 45H39.25C42.7018 45 45.5 42.2018 45.5 38.75V31.25C45.5 27.7982 42.7018 25 39.25 25H31.75Z" fill="#1657FF"/>
</svg>
