<svg width="33" height="31" viewBox="0 0 33 31" fill="none" xmlns="http://www.w3.org/2000/svg">
<path d="M18.176 1.12141C15.9873 1.06411 13.8161 1.5134 11.8395 2.43266C9.47123 3.52204 7.46041 5.23528 6.0323 7.38046C4.60419 9.52564 3.8152 12.018 3.7537 14.5785C3.69741 16.7197 4.15892 18.8441 5.10064 20.7788L1.7312 29.9518L11.257 27.0926C13.188 28.1042 15.3355 28.6555 17.5245 28.7016C20.1419 28.7625 22.7242 28.1092 24.9821 26.8151C27.24 25.5209 29.0844 23.637 30.3086 21.3742C31.3406 19.4862 31.9019 17.386 31.9468 15.2445L31.966 14.4333C31.8551 11.0472 30.4716 7.81884 28.0802 5.36624C25.6887 2.91364 22.4575 1.40921 19.0052 1.14099L18.176 1.12141Z" stroke="#1657FF" stroke-width="2" stroke-linecap="round" stroke-linejoin="round"/>
<circle cx="1.73101" cy="1.73101" r="1.73101" transform="matrix(0.999985 0.00548668 0.00548668 -0.999985 8.8916 17.1918)" fill="#FF16A2"/>
<circle cx="1.73101" cy="1.73101" r="1.73101" transform="matrix(0.999985 0.00548668 0.00548668 -0.999985 15.8154 17.2299)" fill="#FF16A2"/>
<circle cx="1.73101" cy="1.73101" r="1.73101" transform="matrix(0.999985 0.00548668 0.00548668 -0.999985 22.7395 17.2678)" fill="#FF16A2"/>
</svg>
