<svg width="43" height="48" viewBox="0 0 43 48" fill="none" xmlns="http://www.w3.org/2000/svg">
<path fill-rule="evenodd" clip-rule="evenodd" d="M15.4526 42.7874C15.9842 42.347 16.7722 42.421 17.2126 42.9526C17.7667 43.6214 18.4116 44.1365 19.1031 44.4823C19.7933 44.8274 20.522 45 21.25 45C21.9781 45 22.7068 44.8274 23.397 44.4823C24.0884 44.1365 24.7334 43.6214 25.2874 42.9526C25.7279 42.421 26.5158 42.347 27.0475 42.7874C27.5791 43.2279 27.653 44.0158 27.2126 44.5475C26.4534 45.4639 25.5394 46.2062 24.515 46.7183C23.4895 47.2311 22.3792 47.5 21.25 47.5C20.1209 47.5 19.0106 47.2311 17.985 46.7183C16.9607 46.2062 16.0466 45.4639 15.2874 44.5475C14.847 44.0158 14.921 43.2279 15.4526 42.7874Z" fill="#FF16A2"/>
<path fill-rule="evenodd" clip-rule="evenodd" d="M21.25 0C21.9404 0 22.5 0.559644 22.5 1.25V3.75C22.5 4.44036 21.9404 5 21.25 5C20.5596 5 20 4.44036 20 3.75V1.25C20 0.559644 20.5596 0 21.25 0Z" fill="#FF16A2"/>
<path fill-rule="evenodd" clip-rule="evenodd" d="M5 18.75C5 9.77537 12.2754 2.5 21.25 2.5C30.2246 2.5 37.5 9.77537 37.5 18.75V28.4549C37.5 29.6945 38.2003 30.8276 39.309 31.382L40.1008 31.7779C41.5712 32.5131 42.5 34.0159 42.5 35.6598C42.5 38.0568 40.5568 40 38.1598 40H4.34017C1.94316 40 0 38.0568 0 35.6598C0 34.0159 0.928806 32.5131 2.39919 31.7779L3.19098 31.382C4.29967 30.8276 5 29.6945 5 28.4549V18.75ZM21.25 5C13.6561 5 7.5 11.1561 7.5 18.75V28.4549C7.5 30.6414 6.26466 32.6402 4.30902 33.618L3.51722 34.0139C2.8938 34.3256 2.5 34.9628 2.5 35.6598C2.5 36.6761 3.32387 37.5 4.34017 37.5H38.1598C39.1761 37.5 40 36.6761 40 35.6598C40 34.9628 39.6062 34.3256 38.9828 34.0139L38.191 33.618C36.2353 32.6402 35 30.6414 35 28.4549V18.75C35 11.1561 28.8439 5 21.25 5Z" fill="#1657FF"/>
</svg>
