<svg width="152" height="146" viewBox="0 0 152 146" fill="none" xmlns="http://www.w3.org/2000/svg">
<rect x="2.73938" y="2.72339" width="146.024" height="139.983" rx="69.9913" stroke="#1657FF" stroke-width="5"/>
<g clip-path="url(#clip0_68_1947)">
<path d="M72.5314 33.2385C82.4141 33.2385 91.8921 37.1644 98.8803 44.1526C105.868 51.1407 109.794 60.6187 109.794 70.5015C109.803 76.2943 108.456 82.0088 105.86 87.1874L115.521 96.8523C116.256 97.5878 116.669 98.5853 116.669 99.6254C116.669 100.665 116.256 101.663 115.521 102.399L104.428 113.491C103.693 114.226 102.695 114.64 101.655 114.64C100.615 114.64 99.6177 114.226 98.8822 113.491L89.2173 103.83C84.0387 106.426 78.3242 107.773 72.5314 107.764C62.6486 107.764 53.1707 103.839 46.1825 96.8504C39.1943 89.8622 35.2684 80.3842 35.2684 70.5015C35.2684 60.6187 39.1943 51.1407 46.1825 44.1526C53.1707 37.1644 62.6486 33.2385 72.5314 33.2385ZM93.332 85.7518L87.7857 91.2981L101.655 105.164L107.202 99.6176L93.332 85.7518ZM100.643 61.8055L63.8354 98.6134C66.5811 99.4607 69.5033 99.9196 72.5314 99.9196C76.209 99.9245 79.8548 99.2379 83.2788 97.8956L79.4662 94.0752C78.7309 93.3396 78.3178 92.3421 78.3178 91.302C78.3178 90.262 78.7309 89.2645 79.4662 88.5289L90.5588 77.4363C91.2944 76.701 92.2919 76.2879 93.332 76.2879C94.372 76.2879 95.3695 76.701 96.1051 77.4363L99.9255 81.2489C101.268 77.8249 101.954 74.1791 101.95 70.5015C101.95 67.4734 101.491 64.5551 100.643 61.8055Z" fill="#1657FF"/>
</g>
<defs>
<clipPath id="clip0_68_1947">
<rect width="94.138" height="94.138" fill="white" transform="translate(27.4236 25.3938)"/>
</clipPath>
</defs>
</svg>
