<svg width="24" height="24" viewBox="0 0 24 24" fill="none" xmlns="http://www.w3.org/2000/svg">
<mask id="mask0_202_44" style="mask-type:luminance" maskUnits="userSpaceOnUse" x="0" y="0" width="24" height="24">
<path d="M0 0H24V24H0V0Z" fill="white"/>
</mask>
<g mask="url(#mask0_202_44)">
<mask id="mask1_202_44" style="mask-type:luminance" maskUnits="userSpaceOnUse" x="0" y="0" width="24" height="24">
<path d="M0 0H24V24H0V0Z" fill="white"/>
</mask>
<g mask="url(#mask1_202_44)">
<path d="M12 6.00107H12.7999C12.9099 6.00107 13.0199 5.98105 13.1098 5.94107C13.3998 5.82107 13.5998 5.53115 13.5998 5.2012V3.60145C13.5998 2.72161 12.8799 2.00171 12 2.00171C11.1202 2.00171 10.4003 2.72161 10.4003 3.60145V4.40132C10.4003 5.28116 11.1202 6.00107 12 6.00107ZM20.2487 7.00091H3.75132C3.33142 7.00091 3.00146 7.34084 3.00146 7.75076C3.00146 8.16068 3.33142 8.50067 3.75132 8.50067H8.2506C8.80054 8.50067 9.25044 8.95057 9.25044 9.50051V21.1187C9.25044 21.5986 9.64039 21.9885 10.1203 21.9885C10.6002 21.9885 10.9902 21.5986 10.9902 21.1187V14.9996C10.9902 14.4497 11.4401 13.9998 11.99 13.9998C12.5399 13.9998 12.9899 14.4497 12.9899 14.9996V21.1187C12.9899 21.5986 13.3798 21.9985 13.8697 21.9985C14.3597 21.9985 14.7496 21.6086 14.7496 21.1187V9.50051C14.7496 8.95057 15.1995 8.50067 15.7494 8.50067H20.2487C20.6686 8.50067 20.9986 8.16073 20.9986 7.75076C20.9986 7.34084 20.6686 7.00091 20.2487 7.00091Z" fill="white"/>
</g>
</g>
</svg>
