<svg width="172" height="176" viewBox="0 0 172 176" fill="none" xmlns="http://www.w3.org/2000/svg">
<rect x="168.519" y="27.482" width="147.692" height="141.585" rx="70.7923" transform="rotate(100 168.519 27.482)" stroke="#222222" stroke-width="5"/>
<path d="M44.2506 78.1111C42.3671 88.7932 44.8041 99.786 51.0257 108.671C57.2472 117.556 66.7435 123.606 77.4256 125.49C83.6852 126.604 90.1187 126.236 96.211 124.418L104.816 136.702C105.471 137.637 106.471 138.274 107.595 138.472C108.719 138.67 109.876 138.414 110.811 137.759L124.915 127.883C125.85 127.228 126.487 126.229 126.685 125.105C126.883 123.981 126.627 122.824 125.972 121.888L117.372 109.601C121.165 104.498 123.71 98.578 124.804 92.3149C126.688 81.6328 124.251 70.64 118.029 61.7547C111.808 52.8695 102.311 46.8197 91.6294 44.9361C80.9473 43.0526 69.9545 45.4896 61.0693 51.7111C52.184 57.9327 46.1342 67.429 44.2506 78.1111ZM97.047 110.603L104.099 105.665L116.443 123.299L109.391 128.237L97.047 110.603ZM69.7703 113.941L116.571 81.1715C116.963 84.3007 116.902 87.5467 116.325 90.8198C115.629 94.7958 114.192 98.6056 112.089 102.051L108.686 97.2016C108.031 96.2666 107.032 95.63 105.908 95.4318C104.783 95.2335 103.627 95.4899 102.691 96.1446L88.5874 106.02C87.6524 106.675 87.0158 107.675 86.8176 108.799C86.6193 109.923 86.8757 111.08 87.5304 112.015L90.9232 116.871C86.9665 117.669 82.8949 117.717 78.9207 117.011C75.6477 116.433 72.5809 115.381 69.7703 113.941ZM52.73 79.6062C53.9346 72.7704 57.31 66.5047 62.3558 61.7382C67.4016 56.9717 73.8491 53.9581 80.7424 53.1443C87.6357 52.3304 94.6078 53.7597 100.625 57.2201C106.642 60.6805 111.384 65.9879 114.147 72.3552L62.3147 108.649C58.439 104.979 55.5346 100.404 53.8618 95.3355C52.189 90.2668 51.8001 84.8622 52.73 79.6062Z" fill="#323232"/>
</svg>
