<svg width="151" height="157" viewBox="0 0 151 157" fill="none" xmlns="http://www.w3.org/2000/svg">
<rect x="8.34428" y="154.109" width="146.024" height="139.983" rx="69.9913" transform="rotate(-92.1768 8.34428 154.109)" stroke="black" stroke-width="5"/>
<path d="M36.1865 83.2083C35.8112 73.3327 39.3742 63.7124 46.0919 56.4638C52.8096 49.2153 62.1316 44.9322 72.0072 44.5568C77.7955 44.3277 83.5571 45.4571 88.8306 47.8544L98.1215 37.8333C98.8286 37.0706 99.8097 36.6199 100.849 36.5804C101.888 36.5409 102.901 36.9158 103.664 37.6227L115.17 48.2859C115.932 48.993 116.383 49.9741 116.423 51.0134C116.462 52.0528 116.087 53.0652 115.38 53.8282L106.094 63.853C108.884 68.9293 110.448 74.5885 110.659 80.3775C111.034 90.2531 107.471 99.8734 100.753 107.122C94.0356 114.37 84.7136 118.654 74.838 119.029C64.9624 119.404 55.3421 115.841 48.0936 109.124C40.845 102.406 36.5619 93.0839 36.1865 83.2083ZM87.8719 60.4281L93.6248 65.7597L106.954 51.3734L101.201 46.0417L87.8719 60.4281ZM63.6651 54.0315L101.845 89.4148C102.587 86.6389 102.935 83.7014 102.819 80.6755C102.685 77.0003 101.86 73.3832 100.389 70.0127L96.7159 73.9676C96.0088 74.7304 95.0277 75.1811 93.9884 75.2206C92.949 75.2601 91.9366 74.8852 91.1736 74.1783L79.6677 63.5151C78.9049 62.808 78.4543 61.8269 78.4147 60.7875C78.3752 59.7482 78.7501 58.7357 79.457 57.9728L83.1217 54.0103C79.6493 52.799 75.98 52.2514 72.3052 52.396C69.2793 52.511 66.3805 53.0805 63.6651 54.0315Z" fill="black"/>
</svg>
