<svg width="38" height="46" viewBox="0 0 38 46" fill="none" xmlns="http://www.w3.org/2000/svg">
<path fill-rule="evenodd" clip-rule="evenodd" d="M19 2.75C14.1675 2.75 10.25 6.66751 10.25 11.5C10.25 16.3325 14.1675 20.25 19 20.25C23.8325 20.25 27.75 16.3325 27.75 11.5C27.75 6.66751 23.8325 2.75 19 2.75ZM7.75 11.5C7.75 5.2868 12.7868 0.25 19 0.25C25.2132 0.25 30.25 5.2868 30.25 11.5C30.25 17.7132 25.2132 22.75 19 22.75C12.7868 22.75 7.75 17.7132 7.75 11.5Z" fill="#FF16A2"/>
<path fill-rule="evenodd" clip-rule="evenodd" d="M11.8247 26.6773C14.0995 25.735 16.5377 25.25 19 25.25C21.4623 25.25 23.9005 25.735 26.1753 26.6773C28.4502 27.6195 30.5172 29.0006 32.2583 30.7417C33.9993 32.4828 35.3805 34.5498 36.3227 36.8247C37.265 39.0995 37.75 41.5377 37.75 44C37.75 44.6904 37.1904 45.25 36.5 45.25C35.8096 45.25 35.25 44.6904 35.25 44C35.25 41.866 34.8297 39.7529 34.013 37.7814C33.1964 35.8099 31.9994 34.0185 30.4905 32.5095C28.9815 31.0006 27.1901 29.8036 25.2186 28.987C23.2471 28.1703 21.134 27.75 19 27.75C16.866 27.75 14.7529 28.1703 12.7814 28.987C10.8099 29.8036 9.01847 31.0006 7.50951 32.5095C6.00056 34.0185 4.8036 35.8099 3.98696 37.7814C3.17032 39.7529 2.75 41.866 2.75 44C2.75 44.6904 2.19036 45.25 1.5 45.25C0.809644 45.25 0.25 44.6904 0.25 44C0.25 41.5377 0.734983 39.0995 1.67726 36.8247C2.61953 34.5498 4.00065 32.4828 5.74175 30.7417C7.48285 29.0007 9.54983 27.6195 11.8247 26.6773Z" fill="#1657FF"/>
</svg>
