<svg width="48" height="48" viewBox="0 0 48 48" fill="none" xmlns="http://www.w3.org/2000/svg">
<path fill-rule="evenodd" clip-rule="evenodd" d="M20.5 2.5C10.835 2.5 3 10.335 3 20C3 29.665 10.835 37.5 20.5 37.5C30.165 37.5 38 29.665 38 20C38 10.335 30.165 2.5 20.5 2.5ZM0.5 20C0.5 8.95431 9.45431 0 20.5 0C31.5457 0 40.5 8.95431 40.5 20C40.5 31.0457 31.5457 40 20.5 40C9.45431 40 0.5 31.0457 0.5 20Z" fill="#1657FF"/>
<path fill-rule="evenodd" clip-rule="evenodd" d="M35.8661 35.3661C36.3543 34.878 37.1457 34.878 37.6339 35.3661L47.6339 45.3661C48.122 45.8543 48.122 46.6457 47.6339 47.1339C47.1457 47.622 46.3543 47.622 45.8661 47.1339L35.8661 37.1339C35.378 36.6457 35.378 35.8543 35.8661 35.3661Z" fill="#FF16A2"/>
</svg>
