<svg width="48" height="48" viewBox="0 0 48 48" fill="none" xmlns="http://www.w3.org/2000/svg">
<path fill-rule="evenodd" clip-rule="evenodd" d="M23.75 15C18.9175 15 15 18.9175 15 23.75C15 28.5825 18.9175 32.5 23.75 32.5C28.5825 32.5 32.5 28.5825 32.5 23.75C32.5 18.9175 28.5825 15 23.75 15ZM12.5 23.75C12.5 17.5368 17.5368 12.5 23.75 12.5C29.9632 12.5 35 17.5368 35 23.75C35 29.9632 29.9632 35 23.75 35C17.5368 35 12.5 29.9632 12.5 23.75Z" fill="#FF16A2"/>
<path fill-rule="evenodd" clip-rule="evenodd" d="M18.7634 2.16492C21.4612 -0.72164 26.0388 -0.721642 28.7366 2.16492L30.1345 3.66059L29.2213 4.51412L30.1345 3.66059C30.9873 4.57297 32.1927 5.07228 33.4408 5.0301L35.4869 4.96095C39.4356 4.8275 42.6725 8.06437 42.539 12.0131L42.4699 14.0592C42.4277 15.3073 42.927 16.5127 43.8394 17.3655L45.3351 18.7634C48.2216 21.4612 48.2216 26.0388 45.3351 28.7366L43.8394 30.1345C42.927 30.9873 42.4277 32.1927 42.4699 33.4408L42.539 35.4869C42.6725 39.4356 39.4356 42.6725 35.4869 42.539L33.4408 42.4699C32.1927 42.4277 30.9873 42.927 30.1345 43.8394L28.7366 45.3351C26.0388 48.2216 21.4612 48.2216 18.7634 45.3351L17.3655 43.8394C16.5127 42.927 15.3073 42.4277 14.0592 42.4699L12.0131 42.539C8.06437 42.6725 4.8275 39.4356 4.96095 35.4869L5.0301 33.4408C5.07228 32.1927 4.57297 30.9873 3.6606 30.1345L2.16492 28.7366C-0.72164 26.0388 -0.721642 21.4612 2.16492 18.7634L2.99532 19.6518L2.16492 18.7634L3.6606 17.3655C4.57297 16.5127 5.07228 15.3073 5.0301 14.0592L4.96095 12.0131C4.82751 8.06437 8.06437 4.8275 12.0131 4.96095L14.0592 5.0301C15.3073 5.07228 16.5127 4.57297 17.3655 3.6606L18.7634 2.16492ZM26.9102 3.87197C25.2005 2.04268 22.2995 2.04268 20.5898 3.87197L19.1919 5.36765C17.8464 6.80734 15.9442 7.59523 13.9748 7.52867L11.9287 7.45953C9.42625 7.37496 7.37496 9.42625 7.45953 11.9287L7.52867 13.9748C7.59523 15.9442 6.80734 17.8464 5.36765 19.1919L3.87197 20.5898C2.04268 22.2995 2.04268 25.2005 3.87197 26.9102L5.36765 28.3081C6.80734 29.6536 7.59523 31.5558 7.52867 33.5252L7.45953 35.5713C7.37496 38.0738 9.42625 40.125 11.9287 40.0405L13.9748 39.9713C15.9442 39.9048 17.8464 40.6927 19.1919 42.1324L20.5898 43.628C22.2995 45.4573 25.2005 45.4573 26.9102 43.628L28.3081 42.1324C29.6536 40.6927 31.5558 39.9048 33.5252 39.9713L35.5713 40.0405C38.0738 40.125 40.125 38.0738 40.0405 35.5713L39.9713 33.5252C39.9048 31.5558 40.6927 29.6536 42.1324 28.3081L43.628 26.9102C45.4573 25.2005 45.4573 22.2995 43.628 20.5898L42.1324 19.1919C40.6927 17.8464 39.9048 15.9442 39.9713 13.9748L40.0405 11.9287C40.125 9.42625 38.0738 7.37496 35.5713 7.45953L33.5252 7.52867C31.5558 7.59523 29.6536 6.80734 28.3081 5.36765L26.9102 3.87197L27.8234 3.01845L26.9102 3.87197Z" fill="#1657FF"/>
</svg>
