<svg width="450" height="329" viewBox="0 0 450 329" fill="none" xmlns="http://www.w3.org/2000/svg">
<g clip-path="url(#clip0_1_5)">
<path d="M81.2913 315C126.187 315 162.583 312.235 162.583 308.823C162.583 305.412 126.187 302.646 81.2913 302.646C36.3954 302.646 0 305.412 0 308.823C0 312.235 36.3954 315 81.2913 315Z" fill="#E6E6E6"/>
<path d="M62.1376 94.0146C76.2847 87.9945 93.9052 91.8088 111.113 94.4561C111.274 91.2502 113.215 87.3486 111.181 85.112C108.711 82.3948 108.939 79.5398 110.425 76.6683C114.226 69.3255 108.78 61.5123 103.282 55.0158C102.042 53.5548 100.476 52.4069 98.7098 51.6653C96.9437 50.9236 95.0277 50.6093 93.1174 50.7476L82.9315 51.4755C80.4529 51.6527 78.0875 52.5829 76.1517 54.1417C74.216 55.7006 72.8023 57.8138 72.0997 60.1984C69.6676 63.5078 68.3658 66.808 69.1854 70.0911C65.5424 72.5818 64.9303 75.5884 66.5673 78.9778C67.9555 81.1119 67.9407 83.1892 66.5042 85.2091C64.6176 87.7842 63.1727 90.6556 62.2286 93.7055L62.1376 94.0146Z" fill="#2F2E41"/>
<path d="M398.332 276.513H109.996C107.432 276.513 104.973 275.494 103.16 273.68C101.346 271.866 100.328 269.406 100.328 266.841C204.85 254.688 307.407 254.688 408 266.841C408 269.406 406.981 271.866 405.168 273.68C403.355 275.494 400.896 276.513 398.332 276.513Z" fill="#2F2E41"/>
<path d="M408 267.41L100.328 266.841L135.986 206.814L136.157 206.529V74.2365C136.156 72.6308 136.473 71.0407 137.087 69.5572C137.701 68.0736 138.601 66.7257 139.736 65.5902C140.871 64.4548 142.218 63.5541 143.701 62.9397C145.184 62.3253 146.773 62.0091 148.378 62.0092H358.244C359.849 62.0091 361.438 62.3253 362.921 62.9397C364.404 63.5541 365.751 64.4548 366.886 65.5902C368.021 66.7257 368.921 68.0736 369.535 69.5572C370.149 71.0407 370.465 72.6308 370.465 74.2365V207.44L408 267.41Z" fill="#3F3D56"/>
<path d="M148.099 70.5439C147.044 70.5451 146.032 70.9651 145.286 71.7117C144.54 72.4584 144.12 73.4708 144.119 74.5267V195.15C144.12 196.206 144.54 197.218 145.286 197.965C146.032 198.711 147.044 199.131 148.099 199.133H360.228C361.284 199.131 362.296 198.711 363.042 197.965C363.788 197.218 364.208 196.206 364.209 195.15V74.5267C364.208 73.4708 363.788 72.4585 363.042 71.7118C362.296 70.9651 361.284 70.5451 360.228 70.5439H148.099Z" fill="white"/>
<path d="M148.988 215.064C148.662 215.065 148.343 215.158 148.068 215.334C147.794 215.51 147.575 215.761 147.438 216.057L136.451 239.954C136.331 240.215 136.279 240.5 136.299 240.786C136.319 241.072 136.41 241.348 136.564 241.589C136.719 241.83 136.931 242.028 137.182 242.165C137.433 242.303 137.715 242.375 138.001 242.375H369.059C369.35 242.375 369.636 242.3 369.89 242.159C370.144 242.017 370.358 241.813 370.511 241.565C370.664 241.318 370.751 241.035 370.764 240.745C370.777 240.454 370.715 240.165 370.585 239.904L358.642 216.007C358.501 215.723 358.284 215.484 358.014 215.318C357.744 215.151 357.434 215.063 357.117 215.064H148.988Z" fill="#2F2E41"/>
<path d="M253.311 68.5525C254.724 68.5525 255.87 67.4061 255.87 65.9921C255.87 64.578 254.724 63.4317 253.311 63.4317C251.897 63.4317 250.752 64.578 250.752 65.9921C250.752 67.4061 251.897 68.5525 253.311 68.5525Z" fill="white"/>
<path d="M230.6 246.927C230.225 246.927 229.86 247.051 229.562 247.279C229.265 247.508 229.05 247.827 228.952 248.19L226.196 258.431C226.128 258.684 226.119 258.949 226.17 259.206C226.221 259.464 226.33 259.705 226.489 259.913C226.649 260.121 226.854 260.29 227.088 260.406C227.323 260.522 227.582 260.582 227.844 260.582H280.258C280.53 260.582 280.798 260.517 281.04 260.392C281.281 260.268 281.49 260.087 281.648 259.865C281.805 259.643 281.908 259.387 281.946 259.118C281.985 258.849 281.959 258.574 281.87 258.317L278.326 248.075C278.21 247.74 277.992 247.449 277.704 247.243C277.415 247.037 277.069 246.927 276.714 246.927H230.6Z" fill="#2F2E41"/>
<path d="M370.465 204.538V206.814H135.986L136.162 206.529V204.538H370.465Z" fill="#2F2E41"/>
<path d="M363.925 110.657C385.911 110.657 403.735 92.825 403.735 70.8284C403.735 48.8318 385.911 31 363.925 31C341.939 31 324.115 48.8318 324.115 70.8284C324.115 92.825 341.939 110.657 363.925 110.657Z" fill="#1657FF"/>
<path d="M380.418 88.1822H347.432C346.829 88.1816 346.251 87.9416 345.825 87.5149C345.398 87.0882 345.158 86.5097 345.158 85.9063V65.9921C345.158 65.3886 345.398 64.8101 345.825 64.3835C346.251 63.9568 346.829 63.7168 347.432 63.7162H380.418C381.021 63.7168 381.599 63.9568 382.025 64.3835C382.452 64.8101 382.692 65.3886 382.692 65.9921V85.9062C382.692 86.5097 382.452 87.0882 382.025 87.5149C381.599 87.9416 381.021 88.1816 380.418 88.1822ZM347.432 65.9921V85.9063H380.419L380.418 65.9921L347.432 65.9921Z" fill="white"/>
<path d="M374.162 65.9921H353.688V56.8885C353.688 50.2947 357.994 45.5089 363.925 45.5089C369.856 45.5089 374.162 50.2947 374.162 56.8885L374.162 65.9921ZM355.963 63.7162H371.887V56.8885C371.887 51.5284 368.613 47.7848 363.925 47.7848C359.237 47.7848 355.963 51.5285 355.963 56.8885L355.963 63.7162Z" fill="white"/>
<path d="M363.925 77.6561C365.181 77.6561 366.2 76.6371 366.2 75.3802C366.2 74.1232 365.181 73.1043 363.925 73.1043C362.669 73.1043 361.65 74.1232 361.65 75.3802C361.65 76.6371 362.669 77.6561 363.925 77.6561Z" fill="white"/>
<path d="M336.134 158.218H172.194C171.389 158.218 170.617 157.897 170.048 157.328C169.479 156.758 169.159 155.986 169.158 155.181V114.495C169.159 113.69 169.479 112.918 170.048 112.349C170.617 111.779 171.389 111.459 172.194 111.458H336.134C336.939 111.459 337.711 111.779 338.28 112.349C338.849 112.918 339.169 113.69 339.17 114.495V155.181C339.169 155.986 338.849 156.758 338.28 157.328C337.711 157.897 336.939 158.218 336.134 158.218ZM172.194 112.673C171.711 112.673 171.248 112.866 170.906 113.207C170.565 113.549 170.372 114.012 170.372 114.495V155.181C170.372 155.664 170.565 156.128 170.906 156.469C171.248 156.811 171.711 157.003 172.194 157.004H336.134C336.617 157.003 337.08 156.811 337.422 156.469C337.763 156.128 337.955 155.664 337.956 155.181V114.495C337.955 114.012 337.763 113.549 337.422 113.207C337.08 112.866 336.617 112.673 336.134 112.673L172.194 112.673Z" fill="#E6E6E6"/>
<path d="M197.667 145.65C204.497 145.65 210.033 140.11 210.033 133.277C210.033 126.444 204.497 120.905 197.667 120.905C190.837 120.905 185.3 126.444 185.3 133.277C185.3 140.11 190.837 145.65 197.667 145.65Z" fill="#E6E6E6"/>
<path d="M226.228 125.029C225.957 125.028 225.689 125.081 225.438 125.185C225.188 125.288 224.96 125.44 224.768 125.632C224.577 125.823 224.425 126.051 224.321 126.301C224.217 126.551 224.164 126.82 224.164 127.091C224.164 127.362 224.217 127.63 224.321 127.881C224.425 128.131 224.577 128.359 224.768 128.55C224.96 128.742 225.188 128.893 225.438 128.997C225.689 129.1 225.957 129.153 226.228 129.153H323.396C323.942 129.153 324.467 128.936 324.853 128.549C325.24 128.162 325.457 127.638 325.457 127.091C325.457 126.544 325.24 126.019 324.853 125.633C324.467 125.246 323.942 125.029 323.396 125.029H226.228Z" fill="#E6E6E6"/>
<path d="M226.228 137.401C225.681 137.401 225.157 137.619 224.771 138.005C224.384 138.392 224.167 138.917 224.167 139.463C224.167 140.01 224.384 140.535 224.771 140.922C225.157 141.308 225.681 141.526 226.228 141.526H268.04C268.586 141.526 269.11 141.308 269.497 140.922C269.883 140.535 270.101 140.01 270.101 139.463C270.101 138.917 269.883 138.392 269.497 138.005C269.11 137.619 268.586 137.401 268.04 137.401H226.228Z" fill="#E6E6E6"/>
<path d="M135.583 138.235L105.277 154.355L104.893 140.922C114.785 139.27 124.196 136.394 132.897 131.711L136.067 123.877C136.412 123.023 136.974 122.274 137.696 121.703C138.418 121.132 139.276 120.758 140.186 120.619C141.096 120.48 142.027 120.58 142.886 120.91C143.746 121.239 144.505 121.786 145.089 122.498C145.944 123.539 146.372 124.867 146.285 126.211C146.198 127.556 145.604 128.817 144.622 129.74L135.583 138.235Z" fill="#FFB8B8"/>
<path d="M61.5335 231.303C61.3124 230.492 61.2655 229.643 61.3958 228.813C61.526 227.982 61.8306 227.188 62.2894 226.484L68.9467 216.262C70.5213 213.845 72.9375 212.098 75.7263 211.362C78.5151 210.626 81.4779 210.953 84.0396 212.278C81.2418 217.043 81.6318 221.223 85.0059 224.856C79.768 227.414 74.927 230.716 70.6328 234.659C69.8488 235.193 68.9485 235.533 68.0069 235.649C67.0652 235.765 66.1094 235.654 65.2192 235.326C64.3289 234.998 63.53 234.462 62.8889 233.762C62.2478 233.062 61.7831 232.219 61.5335 231.303Z" fill="#2F2E41"/>
<path d="M136.963 217.938C135.955 219.618 134.533 221.011 132.833 221.982C131.133 222.954 129.212 223.472 127.254 223.487L83.027 223.822L81.109 212.692L100.673 206.935L84.1779 194.27L102.208 173.161L134.956 203.698C136.87 205.483 138.114 207.871 138.479 210.463C138.844 213.055 138.309 215.694 136.963 217.938Z" fill="#2F2E41"/>
<path d="M76.1219 294.057H65.7643C56.4646 230.281 46.9984 166.328 74.9711 142.457L107.962 147.83L103.742 175.848L85.3287 196.956L76.1219 294.057Z" fill="#2F2E41"/>
<path d="M85.2268 308.504C84.416 308.725 83.5675 308.772 82.7372 308.642C81.9069 308.512 81.1136 308.207 80.4094 307.748L69.1632 306.236C66.7466 304.66 65.0009 302.243 64.265 299.453C63.5291 296.663 63.8553 293.699 65.1804 291.136C69.9431 293.935 74.1209 293.544 77.7515 290.168C80.3168 295.351 84.5434 295.034 88.58 299.4C89.1145 300.185 89.4539 301.085 89.57 302.027C89.6861 302.969 89.5755 303.926 89.2475 304.816C88.9194 305.707 88.3834 306.506 87.684 307.148C86.9846 307.789 86.1422 308.254 85.2268 308.504Z" fill="#2F2E41"/>
<path d="M100.673 99.8558L81.4926 95.2503C84.6782 88.7265 84.9405 81.4674 83.4106 73.7576L96.4536 73.3738C96.8623 82.9611 98.0987 91.9181 100.673 99.8558Z" fill="#FFB8B8"/>
<path d="M105.945 159.386C91.982 168.905 82.1162 159.712 74.5874 145.528C75.6336 136.848 73.9397 126.461 70.8024 115.175C69.4071 110.197 69.9281 104.877 72.2623 100.264C74.5965 95.6517 78.5744 92.0824 83.4106 90.2609L99.9061 97.1693C113.913 108.592 116.67 120.964 111.415 134.014L105.945 159.386Z" fill="#1657FF"/>
<path d="M65.7643 109.451L50.4196 117.51L77.6564 133.63L81.4462 142.983C81.6992 143.607 81.8224 144.276 81.8084 144.949C81.7944 145.623 81.6434 146.286 81.3647 146.9C81.086 147.513 80.6854 148.063 80.1873 148.516C79.6893 148.969 79.1041 149.316 78.4676 149.536C77.7441 149.785 76.9727 149.864 76.2137 149.765C75.4547 149.667 74.7288 149.394 74.0929 148.968C73.4569 148.542 72.9282 147.975 72.5481 147.31C72.1679 146.645 71.9467 145.902 71.9018 145.138L71.5185 138.619L36.9009 127.19C35.7345 126.805 34.6711 126.159 33.791 125.302C32.911 124.445 32.2374 123.399 31.8214 122.243C31.215 120.557 31.1841 118.719 31.7336 117.014C32.2831 115.309 33.382 113.835 34.8583 112.822L62.6954 93.7151L65.7643 109.451Z" fill="#FFB8B8"/>
<path d="M81.1089 110.986C74.7093 108.18 68.8899 111.228 61.5445 113.672L60.3936 93.3313C67.6873 89.442 74.6413 88.3934 81.109 91.4123L81.1089 110.986Z" fill="#1657FF"/>
<path d="M88.7644 83.4496C95.5278 83.4496 101.011 77.9642 101.011 71.1976C101.011 64.431 95.5278 58.9456 88.7644 58.9456C82.001 58.9456 76.5182 64.431 76.5182 71.1976C76.5182 77.9642 82.001 83.4496 88.7644 83.4496Z" fill="#FFB8B8"/>
<path d="M103.415 69.6517C91.29 70.8398 82.051 68.8559 76.1463 63.2071V58.6579H102.386L103.415 69.6517Z" fill="#2F2E41"/>
</g>
<defs>
<clipPath id="clip0_1_5">
<rect width="408" height="284" fill="white" transform="translate(0 31)"/>
</clipPath>
</defs>
</svg>
